<?xml version="1.0" encoding="utf-8"?>
<!-- Generator: Adobe Illustrator 19.1.0, SVG Export Plug-In . SVG Version: 6.00 Build 0)  -->
<svg version="1.1" id="Layer_1" xmlns="http://www.w3.org/2000/svg" xmlns:xlink="http://www.w3.org/1999/xlink" x="0px" y="0px"
	 viewBox="0 0 583 156.4" style="enable-background:new 0 0 583 156.4;" xml:space="preserve">
<style type="text/css">
	.st0{stroke:#000000;stroke-width:6;stroke-linecap:round;stroke-linejoin:round;stroke-miterlimit:10;}
	.st1{fill:#FFFFFF;}
	.st2{fill:none;stroke:#000000;stroke-width:3;stroke-linecap:round;stroke-linejoin:round;stroke-miterlimit:10;}
	.st3{fill:none;stroke:#000000;stroke-width:8;stroke-linecap:round;stroke-linejoin:round;stroke-miterlimit:10;}
	.st4{fill:none;}
</style>
<g>
	<path class="st1" d="M64.9,29.4H54c-1.7,0-3.2,2-3.2,3.7v50.2c0,12.5-1.7,15-2.1,15.4c-1.4,1.4-4.1,2.2-8,2.2c-3.4,0-5-1.5-5.7-4.9
		c-0.3-1.4-1.5-2.6-2.9-2.6h-9.5c-0.8,0-1.6,0.5-2.2,1.1c-0.6,0.6-0.9,1.5-0.8,2.3c0.4,5.9,2.5,10.8,6.4,14.4
		c3.9,3.6,8.8,5.4,14.8,5.4c9.9,0,17.1-2.8,21.1-8.5c3.9-5.4,5.8-13.7,5.8-25.3V33.1C67.9,31.5,66.5,29.4,64.9,29.4z"/>
	<path class="st1" d="M144.6,104.9c-2.6-1.5-3.7-4.6-3.7-9.5V70.7c0-10.7-2.9-18.7-7.9-23.8c-5.1-5.1-13.3-7.7-24-7.7
		c-4,0-8.4,0.7-12.7,2.2c-4.4,1.5-8,3.3-10.6,5.4c-1.1,0.9-1.4,2.4-0.8,3.7l5.1,10.2c0.4,0.9,1.2,1.5,2.2,1.6
		c0.9,0.1,1.9-0.2,2.6-0.8c3.6-3.6,8.6-5.3,15.5-5.3c7,0,10.7,3,11.6,9.7c-1.9-0.4-3.8-0.6-5.5-0.6c-10.1,0-18.6,2.7-25.2,7.9
		c-6.8,5.4-10.3,12.2-10.3,20.1c0,6.6,2.3,12.3,6.8,16.8c4.5,4.5,10,6.8,16.2,6.8c9,0,16.3-2.4,21.6-7c1.2,1.9,2.8,3.3,4.6,4.4
		c3,1.7,7.2,2.5,12.7,2.5c1.7,0,3.1-1.3,3.1-3v-6.1C145.9,106.4,145.5,105.4,144.6,104.9z M121.9,81v13.1c-4,4.6-8.3,6.9-13.3,6.9
		c-8.5,0-9.6-3.9-9.6-7.7c0-3.4,1.6-6.3,4.8-8.9c3.4-2.7,7.6-4.1,13.1-4.1C117.6,80.3,118.9,80.4,121.9,81z"/>
	<path class="st1" d="M214.1,41.7c-0.6-0.8-1.5-1.3-2.5-1.3h-12.8c-1.2,0-2.4,0.7-2.8,1.9l-15.8,40.9l-15.4-40.8
		c-0.4-1.2-1.6-1.9-2.8-1.9h-13.4c-1,0-1.9,0.4-2.5,1.3c-0.6,0.8-0.7,1.9-0.3,2.8l29.5,70.2c0.5,1.1,1.6,1.7,2.8,1.7h3.2
		c1.2,0,2.3-0.6,2.8-1.7l30.2-70.3C214.8,43.5,214.7,42.6,214.1,41.7z"/>
	<path class="st1" d="M278.1,104.9c-2.6-1.5-4.2-4.6-4.2-9.5V70.7c0-10.7-2.5-18.7-7.6-23.8c-5.1-5.1-13.1-7.7-23.9-7.7
		c-4,0-8.3,0.7-12.7,2.2c-4.4,1.5-8,3.3-10.6,5.4c-1.1,0.9-1.4,2.4-0.8,3.7l5.1,10.2c0.4,0.9,1.3,1.5,2.2,1.6
		c0.9,0.1,1.9-0.2,2.6-0.8c3.6-3.6,8.6-5.3,15.5-5.3c7,0,10.7,3,11.7,9.7c-1.9-0.4-3.8-0.6-5.5-0.6c-10.1,0-18.6,2.7-25.2,7.9
		c-6.8,5.4-10.3,12.2-10.3,20.1c0,6.6,2.3,12.3,6.8,16.8c4.5,4.5,10,6.8,16.2,6.8c9,0,16.3-2.4,21.6-7c1.2,1.9,2.8,3.3,4.6,4.4
		c3,1.7,7.3,2.5,12.9,2.5c1.7,0,3.2-1.3,3.2-3v-6.1C279.9,106.4,279,105.4,278.1,104.9z M255.9,81v13.1c-4,4.6-8.4,6.9-13.4,6.9
		c-8.5,0-9.7-3.9-9.7-7.7c0-3.4,1.5-6.3,4.7-8.9c3.4-2.7,7.7-4.1,13.3-4.1C251.5,80.3,252.9,80.4,255.9,81z"/>
	<path class="st1" d="M339,67.6c1.2-0.9,2.3-1.9,3.4-3.1c3.2-3.6,4.9-7.6,4.9-12c0-7.2-2.5-12.8-7.5-16.7
		c-4.8-3.8-11.5-5.7-19.9-5.7c-4.3,0-11.3,0.2-21,0.7c-1.6,0.1-3,1.4-3,3v78.5c0,1.7,1.7,3.1,3.3,3.1h22.4c8.8,0,16.1-2.3,21.7-6.9
		c5.8-4.7,8.7-11,8.7-18.9c0-6.7-1.7-12.1-4.9-16.1C345.1,71.2,342.4,69.2,339,67.6z M330.5,52.9c0,4.4-1.4,9.4-12.3,9.4
		c-2,0-3.4,0-5.4-0.1v-17c2-0.1,4.3-0.2,6.6-0.2C329.2,45,330.5,49,330.5,52.9z M334.8,88c0,4.6-1.2,7.8-3.5,9.7
		c-2.5,2.1-6.9,3.1-12.8,3.1c-1.4,0-3.5-0.1-5.5-0.3V76.2l5.7-0.2c6.1,0,10.5,1,12.9,3C333.7,80.8,334.8,83.8,334.8,88z"/>
	<path class="st1" d="M480,39.2c-8.1,0-14.6,2.4-19.1,7.3l-1.9-4.2c-0.5-1.1-1.6-1.8-2.8-1.8h-8.4c-1.7,0-2.9,1.4-2.9,3.1v68.9
		c0,1.7,1.3,3.1,2.9,3.1h12.2c1.7,0,2.8-1.4,2.8-3.1V62.1c2-1.7,3.2-3.2,5.5-4.5c2.6-1.4,5.1-2.1,7.3-2.1c4.2,0,6.9,1,8.6,3.2
		c1.2,1.6,2.6,5.3,2.6,13.6v40.1c0,1.7,1.7,3.1,3.3,3.1h12.2c1.7,0,3.5-1.4,3.5-3.1V69.7C505.9,44.5,491.7,39.2,480,39.2z"/>
	<path class="st1" d="M558.9,80.3c-2.7-3.5-7-6.6-12.8-9.2l-8.8-4c-5.2-2.3-5.8-5.3-5.8-7.3c0-0.7,0.2-1.7,1.7-2.7
		c1.5-1,3.3-1.5,5.7-1.5c4.2,0,8.4,1.7,12.7,5.1c0.8,0.6,1.8,0.8,2.8,0.5c0.9-0.3,1.7-1,2-2l3.5-11.3c0.5-1.5-0.3-3.1-1.7-3.7
		c-8.1-3.4-14.7-5-20.1-5c-7.3,0-13.3,1.8-18,5.4c-4.9,3.8-7.3,9-7.3,15.6c0,2.5,0.4,5,1.2,7.2c0.8,2.2,2.1,4.3,3.7,6.3
		c1.6,1.9,3.5,3.6,5.7,5.1c2.1,1.4,6,3.4,11.8,6.1c6.1,2.7,9.2,5.7,9.2,9c0,3.4-1,6.5-8.3,6.5c-2.4,0-7-1.1-14.8-6.2
		c-0.8-0.5-1.7-0.6-2.6-0.3s-1.6,0.9-1.9,1.8l-4.3,11.6c-0.5,1.4,0.1,2.9,1.3,3.7c6.8,3.8,14.2,5.8,21.9,5.8c8.3,0,15-2,19.9-5.9
		c5-4.1,7.6-9.7,7.6-16.8C563.2,88.5,561.8,84,558.9,80.3z"/>
	<path class="st1" d="M431.9,45.6c0-6.3-0.6-14.6-6.7-18.2c-5.2-3.1-11.9-1.7-15.7,3c-4.3,5.3-6,13.9-6.6,20.5
		c-0.8,8.6,1,17.1-0.5,25.6c-3.7-0.7-7.5-0.9-11.4-0.5c-5.5-9.5-2.2-21.2-2.8-31.8c-0.5-9.2-5.2-21.4-16.6-20.2
		c-13.2,1.4-12.7,20.3-11.5,29.8c1.5,11.6,4.7,23.6,8.8,34.6c0.3,0.8,0.6,1.6,0.9,2.4c-3,6-5.3,12.8-4.6,19.5
		c1.4,15.6,14.6,26.9,30.2,26c0.1,0,0.1,0,0.2,0c0.1,0,0.2,0,0.3,0c10,0,21.2-1.2,28.7-9.5c8.9-9.8,8.2-25.3,0.8-35.8
		c-0.8-1.1-1.7-2.2-2.6-3.2c0,0,0,0,0,0C427.5,74.7,431.9,59.7,431.9,45.6z M413.2,44.2c0.7-2.6,1.5-6.4,3.5-8.3
		c2.5-2.5,4.5-0.6,5.3,2.1c1.7,5.5,0.8,12.5-0.2,18.1c-1.5,8.6-3.7,17.3-6.5,25.6c-1.4-0.9-2.9-1.7-4.4-2.4
		C413.2,67.6,410,55.7,413.2,44.2z M407.9,126.4c1.5-2.5,2.4-5.7,2.4-9.1c0-8.4-5.2-15-11.9-15c-6.7,0-11.9,6.6-11.9,15
		c0,3.7,1,7,2.7,9.6c-10.6-2.5-17.5-13-14.3-24.5c1-3.5,2.4-7.3,4.4-10.3c1.7-2.5,4.6-3.9,7.2-5.4c5.5-3.1,14.7-2.1,20.4,0.4
		c11,5,19.3,19.2,13.1,30.7C417.3,122.9,412.9,125.3,407.9,126.4z M368.6,43.9c0.2-4.4,2.7-16.3,8.4-8.2c2.7,3.9,2.4,9.5,2.3,14.1
		c-0.2,9.9-1.6,19.9,2.8,28.8c-2,1-4,2.3-5.8,3.8c-0.2-0.5-0.3-1-0.5-1.5C372.2,69.1,368.1,56.4,368.6,43.9z"/>
</g>
</svg>
